<?xml version="1.0" encoding="UTF-8" standalone="no"?>
<!DOCTYPE svg PUBLIC "-//W3C//DTD SVG 1.1//EN" "http://www.w3.org/Graphics/SVG/1.1/DTD/svg11.dtd">
<svg width="100%" height="100%" viewBox="0 0 650 650" version="1.1" xmlns="http://www.w3.org/2000/svg" xmlns:xlink="http://www.w3.org/1999/xlink" xml:space="preserve" xmlns:serif="http://www.serif.com/" style="fill-rule:evenodd;clip-rule:evenodd;stroke-linejoin:round;stroke-miterlimit:2;">
    <g transform="matrix(1.11219,0,0,1.03816,-295.756,-139.065)">
        <path d="M558.14,133.953L585.879,183.261L623.164,141.802L639.966,196.486L684.928,164.956L689.95,222.274L740.334,202.252L733.325,259.331L786.604,251.822L767.915,305.798L821.418,311.179L791.986,359.347L843.03,377.347L804.331,417.291L850.357,447.008L804.331,476.725L843.03,516.669L791.986,534.669L821.418,582.837L767.915,588.217L786.604,642.194L733.325,634.685L740.334,691.763L689.95,671.742L684.928,729.06L639.966,697.529L623.164,752.213L585.879,710.754L558.14,760.062L530.4,710.754L493.115,752.213L476.313,697.529L431.351,729.06L426.329,671.742L375.945,691.763L382.954,634.685L329.675,642.194L348.364,588.217L294.861,582.837L324.293,534.669L273.249,516.669L311.948,476.725L265.922,447.008L311.948,417.291L273.249,377.347L324.293,359.347L294.861,311.179L348.364,305.798L329.675,251.822L382.954,259.331L375.945,202.252L426.329,222.274L431.351,164.956L476.313,196.486L493.115,141.802L530.4,183.261L558.14,133.953Z" style="fill:rgb(219,105,105);"/>
    </g>
    <g id="Layer1">
    </g>
</svg>
