<svg xmlns="http://www.w3.org/2000/svg">
    <!-- view box 256 256 -->
    <symbol viewBox="0 0 256 256" id="instagram-logo">
        <path d="M128,80a48,48,0,1,0,48,48A48.05,48.05,0,0,0,128,80Zm0,80a32,32,0,1,1,32-32A32,32,0,0,1,128,160ZM176,24H80A56.06,56.06,0,0,0,24,80v96a56.06,56.06,0,0,0,56,56h96a56.06,56.06,0,0,0,56-56V80A56.06,56.06,0,0,0,176,24Zm40,152a40,40,0,0,1-40,40H80a40,40,0,0,1-40-40V80A40,40,0,0,1,80,40h96a40,40,0,0,1,40,40ZM192,76a12,12,0,1,1-12-12A12,12,0,0,1,192,76Z"></path>
    </symbol>

    <symbol viewBox="0 0 256 256" id="facebook-logo">
        <path d="M128,24A104,104,0,1,0,232,128,104.11,104.11,0,0,0,128,24Zm8,191.63V152h24a8,8,0,0,0,0-16H136V112a16,16,0,0,1,16-16h16a8,8,0,0,0,0-16H152a32,32,0,0,0-32,32v24H96a8,8,0,0,0,0,16h24v63.63a88,88,0,1,1,16,0Z"></path>
    </symbol>

    <symbol viewBox="0 0 256 256" id="barbell">
        <path d="M248,120h-8V88a16,16,0,0,0-16-16H208V64a16,16,0,0,0-16-16H168a16,16,0,0,0-16,16v56H104V64A16,16,0,0,0,88,48H64A16,16,0,0,0,48,64v8H32A16,16,0,0,0,16,88v32H8a8,8,0,0,0,0,16h8v32a16,16,0,0,0,16,16H48v8a16,16,0,0,0,16,16H88a16,16,0,0,0,16-16V136h48v56a16,16,0,0,0,16,16h24a16,16,0,0,0,16-16v-8h16a16,16,0,0,0,16-16V136h8a8,8,0,0,0,0-16ZM32,168V88H48v80Zm56,24H64V64H88V192Zm104,0H168V64h24V175.82c0,.06,0,.12,0,.18s0,.12,0,.18V192Zm32-24H208V88h16Z"></path>
    </symbol>

    <symbol viewBox="0 0 256 256" id="calendar">
        <path d="M208,32H184V24a8,8,0,0,0-16,0v8H88V24a8,8,0,0,0-16,0v8H48A16,16,0,0,0,32,48V208a16,16,0,0,0,16,16H208a16,16,0,0,0,16-16V48A16,16,0,0,0,208,32ZM72,48v8a8,8,0,0,0,16,0V48h80v8a8,8,0,0,0,16,0V48h24V80H48V48ZM208,208H48V96H208V208Zm-96-88v64a8,8,0,0,1-16,0V132.94l-4.42,2.22a8,8,0,0,1-7.16-14.32l16-8A8,8,0,0,1,112,120Zm59.16,30.45L152,176h16a8,8,0,0,1,0,16H136a8,8,0,0,1-6.4-12.8l28.78-38.37A8,8,0,1,0,145.07,132a8,8,0,1,1-13.85-8A24,24,0,0,1,176,136,23.76,23.76,0,0,1,171.16,150.45Z"></path>
    </symbol>
    
    <symbol viewBox="0 0 256 256" id="caret-right">
        <path d="M181.66,133.66l-80,80a8,8,0,0,1-11.32-11.32L164.69,128,90.34,53.66a8,8,0,0,1,11.32-11.32l80,80A8,8,0,0,1,181.66,133.66Z"></path>
    </symbol>
    
    <symbol viewBox="0 0 256 256" id="check-circle">
        <path d="M173.66,98.34a8,8,0,0,1,0,11.32l-56,56a8,8,0,0,1-11.32,0l-24-24a8,8,0,0,1,11.32-11.32L112,148.69l50.34-50.35A8,8,0,0,1,173.66,98.34ZM232,128A104,104,0,1,1,128,24,104.11,104.11,0,0,1,232,128Zm-16,0a88,88,0,1,0-88,88A88.1,88.1,0,0,0,216,128Z"></path>
    </symbol>
    
    <symbol viewBox="0 0 256 256" id="gauge">
        <path d="M207.06,72.67A111.24,111.24,0,0,0,128,40h-.4C66.07,40.21,16,91,16,153.13V176a16,16,0,0,0,16,16H224a16,16,0,0,0,16-16V152A111.25,111.25,0,0,0,207.06,72.67ZM224,176H119.71l54.76-75.3a8,8,0,0,0-12.94-9.42L99.92,176H32V153.13c0-3.08.15-6.12.43-9.13H56a8,8,0,0,0,0-16H35.27c10.32-38.86,44-68.24,84.73-71.66V80a8,8,0,0,0,16,0V56.33A96.14,96.14,0,0,1,221,128H200a8,8,0,0,0,0,16h23.67c.21,2.65.33,5.31.33,8Z"></path>
    </symbol>
    
    <symbol viewBox="0 0 256 256" id="gear">
        <path d="M128,80a48,48,0,1,0,48,48A48.05,48.05,0,0,0,128,80Zm0,80a32,32,0,1,1,32-32A32,32,0,0,1,128,160Zm88-29.84q.06-2.16,0-4.32l14.92-18.64a8,8,0,0,0,1.48-7.06,107.21,107.21,0,0,0-10.88-26.25,8,8,0,0,0-6-3.93l-23.72-2.64q-1.48-1.56-3-3L186,40.54a8,8,0,0,0-3.94-6,107.71,107.71,0,0,0-26.25-10.87,8,8,0,0,0-7.06,1.49L130.16,40Q128,40,125.84,40L107.2,25.11a8,8,0,0,0-7.06-1.48A107.6,107.6,0,0,0,73.89,34.51a8,8,0,0,0-3.93,6L67.32,64.27q-1.56,1.49-3,3L40.54,70a8,8,0,0,0-6,3.94,107.71,107.71,0,0,0-10.87,26.25,8,8,0,0,0,1.49,7.06L40,125.84Q40,128,40,130.16L25.11,148.8a8,8,0,0,0-1.48,7.06,107.21,107.21,0,0,0,10.88,26.25,8,8,0,0,0,6,3.93l23.72,2.64q1.49,1.56,3,3L70,215.46a8,8,0,0,0,3.94,6,107.71,107.71,0,0,0,26.25,10.87,8,8,0,0,0,7.06-1.49L125.84,216q2.16.06,4.32,0l18.64,14.92a8,8,0,0,0,7.06,1.48,107.21,107.21,0,0,0,26.25-10.88,8,8,0,0,0,3.93-6l2.64-23.72q1.56-1.48,3-3L215.46,186a8,8,0,0,0,6-3.94,107.71,107.71,0,0,0,10.87-26.25,8,8,0,0,0-1.49-7.06Zm-16.1-6.5a73.93,73.93,0,0,1,0,8.68,8,8,0,0,0,1.74,5.48l14.19,17.73a91.57,91.57,0,0,1-6.23,15L187,173.11a8,8,0,0,0-5.1,2.64,74.11,74.11,0,0,1-6.14,6.14,8,8,0,0,0-2.64,5.1l-2.51,22.58a91.32,91.32,0,0,1-15,6.23l-17.74-14.19a8,8,0,0,0-5-1.75h-.48a73.93,73.93,0,0,1-8.68,0,8,8,0,0,0-5.48,1.74L100.45,215.8a91.57,91.57,0,0,1-15-6.23L82.89,187a8,8,0,0,0-2.64-5.1,74.11,74.11,0,0,1-6.14-6.14,8,8,0,0,0-5.1-2.64L46.43,170.6a91.32,91.32,0,0,1-6.23-15l14.19-17.74a8,8,0,0,0,1.74-5.48,73.93,73.93,0,0,1,0-8.68,8,8,0,0,0-1.74-5.48L40.2,100.45a91.57,91.57,0,0,1,6.23-15L69,82.89a8,8,0,0,0,5.1-2.64,74.11,74.11,0,0,1,6.14-6.14A8,8,0,0,0,82.89,69L85.4,46.43a91.32,91.32,0,0,1,15-6.23l17.74,14.19a8,8,0,0,0,5.48,1.74,73.93,73.93,0,0,1,8.68,0,8,8,0,0,0,5.48-1.74L155.55,40.2a91.57,91.57,0,0,1,15,6.23L173.11,69a8,8,0,0,0,2.64,5.1,74.11,74.11,0,0,1,6.14,6.14,8,8,0,0,0,5.1,2.64l22.58,2.51a91.32,91.32,0,0,1,6.23,15l-14.19,17.74A8,8,0,0,0,199.87,123.66Z"></path>
    </symbol>
    
    <symbol viewBox="0 0 256 256" id="person-running">
        <path d="M152,88a32,32,0,1,0-32-32A32,32,0,0,0,152,88Zm0-48a16,16,0,1,1-16,16A16,16,0,0,1,152,40Zm67.31,100.68c-.61.28-7.49,3.28-19.67,3.28-13.85,0-34.55-3.88-60.69-20a169.31,169.31,0,0,1-15.41,32.34,104.29,104.29,0,0,1,31.31,15.81C173.92,186.65,184,207.35,184,232a8,8,0,0,1-16,0c0-41.7-34.69-56.71-54.14-61.85-.55.7-1.12,1.41-1.69,2.1-19.64,23.8-44.25,36.18-71.63,36.18A92.29,92.29,0,0,1,31.2,208,8,8,0,0,1,32.8,192c25.92,2.58,48.47-7.49,67-30,12.49-15.14,21-33.61,25.25-47C86.13,92.35,61.27,111.63,61,111.84A8,8,0,1,1,51,99.36c1.5-1.2,37.22-29,89.51,6.57,45.47,30.91,71.93,20.31,72.18,20.19a8,8,0,1,1,6.63,14.56Z"></path>
    </symbol>
    
    <symbol viewBox="0 0 256 256" id="sign-out">
        <path d="M120,216a8,8,0,0,1-8,8H48a8,8,0,0,1-8-8V40a8,8,0,0,1,8-8h64a8,8,0,0,1,0,16H56V208h56A8,8,0,0,1,120,216Zm109.66-93.66-40-40a8,8,0,0,0-11.32,11.32L204.69,120H112a8,8,0,0,0,0,16h92.69l-26.35,26.34a8,8,0,0,0,11.32,11.32l40-40A8,8,0,0,0,229.66,122.34Z"></path>
    </symbol>
    
    <symbol viewBox="0 0 256 256" id="warning">
        <path d="M236.8,188.09,149.35,36.22h0a24.76,24.76,0,0,0-42.7,0L19.2,188.09a23.51,23.51,0,0,0,0,23.72A24.35,24.35,0,0,0,40.55,224h174.9a24.35,24.35,0,0,0,21.33-12.19A23.51,23.51,0,0,0,236.8,188.09ZM222.93,203.8a8.5,8.5,0,0,1-7.48,4.2H40.55a8.5,8.5,0,0,1-7.48-4.2,7.59,7.59,0,0,1,0-7.72L120.52,44.21a8.75,8.75,0,0,1,15,0l87.45,151.87A7.59,7.59,0,0,1,222.93,203.8ZM120,144V104a8,8,0,0,1,16,0v40a8,8,0,0,1-16,0Zm20,36a12,12,0,1,1-12-12A12,12,0,0,1,140,180Z"></path>
    </symbol>

    <symbol viewBox="0 0 256 256" id="plus">
        <path d="M224,128a8,8,0,0,1-8,8H136v80a8,8,0,0,1-16,0V136H40a8,8,0,0,1,0-16h80V40a8,8,0,0,1,16,0v80h80A8,8,0,0,1,224,128Z"></path>
    </symbol>
    
    <symbol viewBox="0 0 256 256" id="pencil">
        <path d="M227.31,73.37,182.63,28.68a16,16,0,0,0-22.63,0L36.69,152A15.86,15.86,0,0,0,32,163.31V208a16,16,0,0,0,16,16H92.69A15.86,15.86,0,0,0,104,219.31L227.31,96a16,16,0,0,0,0-22.63ZM51.31,160,136,75.31,152.69,92,68,176.68ZM48,179.31,76.69,208H48Zm48,25.38L79.31,188,164,103.31,180.69,120Zm96-96L147.31,64l24-24L216,84.68Z"></path>
    </symbol>
    
    <symbol viewBox="0 0 256 256" id="trash">
        <path d="M216,48H176V40a24,24,0,0,0-24-24H104A24,24,0,0,0,80,40v8H40a8,8,0,0,0,0,16h8V208a16,16,0,0,0,16,16H192a16,16,0,0,0,16-16V64h8a8,8,0,0,0,0-16ZM96,40a8,8,0,0,1,8-8h48a8,8,0,0,1,8,8v8H96Zm96,168H64V64H192ZM112,104v64a8,8,0,0,1-16,0V104a8,8,0,0,1,16,0Zm48,0v64a8,8,0,0,1-16,0V104a8,8,0,0,1,16,0Z"></path>
    </symbol>
    
    <symbol viewBox="0 0 256 256" id="x">
        <path d="M205.66,194.34a8,8,0,0,1-11.32,11.32L128,139.31,61.66,205.66a8,8,0,0,1-11.32-11.32L116.69,128,50.34,61.66A8,8,0,0,1,61.66,50.34L128,116.69l66.34-66.35a8,8,0,0,1,11.32,11.32L139.31,128Z"></path>
    </symbol>
    
    <symbol viewBox="0 0 256 256" id="map-pin">
        <path d="M128,64a40,40,0,1,0,40,40A40,40,0,0,0,128,64Zm0,64a24,24,0,1,1,24-24A24,24,0,0,1,128,128Zm0-112a88.1,88.1,0,0,0-88,88c0,31.4,14.51,64.68,42,96.25a254.19,254.19,0,0,0,41.45,38.3,8,8,0,0,0,9.18,0A254.19,254.19,0,0,0,174,200.25c27.45-31.57,42-64.85,42-96.25A88.1,88.1,0,0,0,128,16Zm0,206c-16.53-13-72-60.75-72-118a72,72,0,0,1,144,0C200,161.23,144.53,209,128,222Z"></path>
    </symbol>

    <symbol viewBox="0 0 256 256" id="gps-fix">
        <path d="M240,120H215.63A88.13,88.13,0,0,0,136,40.37V16a8,8,0,0,0-16,0V40.37A88.13,88.13,0,0,0,40.37,120H16a8,8,0,0,0,0,16H40.37A88.13,88.13,0,0,0,120,215.63V240a8,8,0,0,0,16,0V215.63A88.13,88.13,0,0,0,215.63,136H240a8,8,0,0,0,0-16ZM128,200a72,72,0,1,1,72-72A72.08,72.08,0,0,1,128,200Zm0-112a40,40,0,1,0,40,40A40,40,0,0,0,128,88Zm0,64a24,24,0,1,1,24-24A24,24,0,0,1,128,152Z"></path>
    </symbol>
    
    <symbol viewBox="0 0 256 256" id="warning-circle">
        <path d="M128,24A104,104,0,1,0,232,128,104.11,104.11,0,0,0,128,24Zm0,192a88,88,0,1,1,88-88A88.1,88.1,0,0,1,128,216Zm-8-80V80a8,8,0,0,1,16,0v56a8,8,0,0,1-16,0Zm20,36a12,12,0,1,1-12-12A12,12,0,0,1,140,172Z"></path>
    </symbol>
    
    <symbol viewBox="0 0 256 256" id="map-pin-area">
        <path d="M112,80a16,16,0,1,1,16,16A16,16,0,0,1,112,80ZM64,80a64,64,0,0,1,128,0c0,59.95-57.58,93.54-60,94.95a8,8,0,0,1-7.94,0C121.58,173.54,64,140,64,80Zm16,0c0,42.2,35.84,70.21,48,78.5,12.15-8.28,48-36.3,48-78.5a48,48,0,0,0-96,0Zm122.77,67.63a8,8,0,0,0-5.54,15C213.74,168.74,224,176.92,224,184c0,13.36-36.52,32-96,32s-96-18.64-96-32c0-7.08,10.26-15.26,26.77-21.36a8,8,0,0,0-5.54-15C29.22,156.49,16,169.41,16,184c0,31.18,57.71,48,112,48s112-16.82,112-48C240,169.41,226.78,156.49,202.77,147.63Z"></path>
    </symbol>
    
    <symbol viewBox="0 0 256 256" id="currency-gbp">
        <path d="M192,208a8,8,0,0,1-8,8H56a8,8,0,0,1,0-16h4a28,28,0,0,0,28-28V136H56a8,8,0,0,1,0-16H88V84a52,52,0,0,1,85.08-40.12A8,8,0,1,1,162.9,56.22,36,36,0,0,0,104,84v36h32a8,8,0,0,1,0,16H104v36a43.82,43.82,0,0,1-10.08,28H184A8,8,0,0,1,192,208Z"></path>
    </symbol>
    
    <symbol viewBox="0 0 256 256" id="save">
        <path d="M219.31,72,184,36.69A15.86,15.86,0,0,0,172.69,32H48A16,16,0,0,0,32,48V208a16,16,0,0,0,16,16H208a16,16,0,0,0,16-16V83.31A15.86,15.86,0,0,0,219.31,72ZM168,208H88V152h80Zm40,0H184V152a16,16,0,0,0-16-16H88a16,16,0,0,0-16,16v56H48V48H172.69L208,83.31ZM160,72a8,8,0,0,1-8,8H96a8,8,0,0,1,0-16h56A8,8,0,0,1,160,72Z"></path>
    </symbol>

    <symbol viewBox="0 0 256 256" id="prohibit">
        <path d="M128,24A104,104,0,1,0,232,128,104.11,104.11,0,0,0,128,24Zm88,104a87.56,87.56,0,0,1-20.41,56.28L71.72,60.4A88,88,0,0,1,216,128ZM40,128A87.56,87.56,0,0,1,60.41,71.72L184.28,195.6A88,88,0,0,1,40,128Z"></path>
    </symbol>
    
    <symbol viewBox="0 0 256 256" id="view">
        <path d="M247.31,124.76c-.35-.79-8.82-19.58-27.65-38.41C194.57,61.26,162.88,48,128,48S61.43,61.26,36.34,86.35C17.51,105.18,9,124,8.69,124.76a8,8,0,0,0,0,6.5c.35.79,8.82,19.57,27.65,38.4C61.43,194.74,93.12,208,128,208s66.57-13.26,91.66-38.34c18.83-18.83,27.3-37.61,27.65-38.4A8,8,0,0,0,247.31,124.76ZM128,192c-30.78,0-57.67-11.19-79.93-33.25A133.47,133.47,0,0,1,25,128,133.33,133.33,0,0,1,48.07,97.25C70.33,75.19,97.22,64,128,64s57.67,11.19,79.93,33.25A133.46,133.46,0,0,1,231.05,128C223.84,141.46,192.43,192,128,192Zm0-112a48,48,0,1,0,48,48A48.05,48.05,0,0,0,128,80Zm0,80a32,32,0,1,1,32-32A32,32,0,0,1,128,160Z"></path>
    </symbol>
</svg>
